<svg width="1455" height="703" viewBox="0 0 1455 703" fill="none" xmlns="http://www.w3.org/2000/svg">
<path d="M0 0H1455V703H0V0Z" fill="#D9D9D9"/>
<path d="M486.562 298.678L516.298 386.665L546.124 298.051C547.677 293.397 548.841 290.174 549.617 288.384C550.393 286.534 551.677 284.893 553.469 283.461C555.26 281.969 557.708 281.223 560.813 281.223C563.082 281.223 565.172 281.79 567.083 282.924C569.053 284.058 570.576 285.58 571.651 287.489C572.785 289.339 573.353 291.219 573.353 293.128C573.353 294.441 573.173 295.873 572.815 297.425C572.457 298.916 572.009 300.408 571.472 301.9C570.934 303.332 570.397 304.824 569.859 306.375L538.063 392.125C536.929 395.407 535.794 398.54 534.66 401.523C533.525 404.447 532.211 407.043 530.719 409.31C529.226 411.518 527.225 413.338 524.718 414.771C522.269 416.203 519.254 416.919 515.671 416.919C512.089 416.919 509.043 416.203 506.535 414.771C504.087 413.398 502.087 411.578 500.535 409.31C499.042 406.983 497.728 404.358 496.594 401.434C495.459 398.51 494.325 395.407 493.19 392.125L461.931 307.091C461.394 305.54 460.826 304.018 460.229 302.527C459.692 301.035 459.214 299.424 458.796 297.693C458.438 295.963 458.259 294.501 458.259 293.307C458.259 290.264 459.483 287.489 461.931 284.983C464.379 282.477 467.454 281.223 471.157 281.223C475.695 281.223 478.889 282.626 480.74 285.43C482.651 288.175 484.592 292.591 486.562 298.678Z" fill="#0F393B"/>
<path d="M674.115 367.241C674.115 374.521 672.981 381.235 670.712 387.381C668.443 393.527 665.159 398.808 660.859 403.224C656.56 407.64 651.425 411.041 645.454 413.428C639.483 415.755 632.765 416.919 625.301 416.919C617.897 416.919 611.239 415.725 605.328 413.338C599.417 410.952 594.281 407.55 589.922 403.134C585.623 398.659 582.339 393.408 580.07 387.381C577.861 381.294 576.756 374.581 576.756 367.241C576.756 359.842 577.891 353.069 580.16 346.923C582.429 340.777 585.683 335.525 589.922 331.169C594.162 326.813 599.297 323.472 605.328 321.144C611.359 318.757 618.017 317.564 625.301 317.564C632.706 317.564 639.423 318.757 645.454 321.144C651.485 323.531 656.65 326.933 660.949 331.348C665.248 335.764 668.503 341.015 670.712 347.102C672.981 353.189 674.115 359.902 674.115 367.241ZM649.574 367.241C649.574 357.276 647.365 349.519 642.946 343.969C638.587 338.42 632.706 335.645 625.301 335.645C620.524 335.645 616.315 336.898 612.672 339.404C609.03 341.851 606.224 345.491 604.253 350.324C602.283 355.158 601.297 360.797 601.297 367.241C601.297 373.626 602.253 379.206 604.164 383.98C606.134 388.753 608.911 392.423 612.493 394.989C616.136 397.495 620.405 398.748 625.301 398.748C632.706 398.748 638.587 395.974 642.946 390.424C647.365 384.815 649.574 377.087 649.574 367.241Z" fill="#0F393B"/>
<path d="M693.462 402.06V296.082C693.462 291.189 694.537 287.489 696.686 284.983C698.896 282.477 701.851 281.223 705.553 281.223C709.256 281.223 712.241 282.477 714.51 284.983C716.779 287.429 717.914 291.129 717.914 296.082V402.06C717.914 407.013 716.749 410.743 714.421 413.249C712.152 415.695 709.196 416.919 705.553 416.919C701.971 416.919 699.045 415.636 696.776 413.07C694.567 410.504 693.462 406.834 693.462 402.06Z" fill="#0F393B"/>
<path d="M806.764 403.134V400.002C803.838 403.701 800.763 406.804 797.539 409.31C794.314 411.817 790.791 413.667 786.97 414.86C783.148 416.113 778.789 416.74 773.893 416.74C767.982 416.74 762.667 415.516 757.95 413.07C753.293 410.623 749.68 407.252 747.113 402.955C744.067 397.764 742.545 390.305 742.545 380.578V332.154C742.545 327.261 743.649 323.621 745.859 321.234C748.068 318.787 750.994 317.564 754.636 317.564C758.338 317.564 761.324 318.787 763.593 321.234C765.862 323.68 766.996 327.32 766.996 332.154V371.269C766.996 376.938 767.474 381.712 768.43 385.591C769.385 389.41 771.087 392.423 773.535 394.631C776.043 396.779 779.416 397.853 783.656 397.853C787.776 397.853 791.657 396.63 795.3 394.184C798.942 391.737 801.599 388.544 803.271 384.606C804.644 381.145 805.331 373.567 805.331 361.871V332.154C805.331 327.32 806.466 323.68 808.735 321.234C811.004 318.787 813.959 317.564 817.602 317.564C821.244 317.564 824.17 318.787 826.379 321.234C828.589 323.621 829.693 327.261 829.693 332.154V402.955C829.693 407.61 828.619 411.101 826.469 413.428C824.379 415.755 821.662 416.919 818.318 416.919C814.974 416.919 812.198 415.725 809.989 413.338C807.839 410.892 806.764 407.49 806.764 403.134Z" fill="#0F393B"/>
<path d="M876.358 331.08V334.034C880.657 328.365 885.344 324.217 890.42 321.592C895.555 318.907 901.437 317.564 908.065 317.564C914.513 317.564 920.276 318.966 925.351 321.771C930.426 324.576 934.218 328.544 936.726 333.676C938.338 336.659 939.383 339.882 939.861 343.343C940.339 346.804 940.577 351.219 940.577 356.59V402.06C940.577 406.953 939.443 410.653 937.174 413.159C934.964 415.666 932.068 416.919 928.486 416.919C924.843 416.919 921.888 415.636 919.619 413.07C917.35 410.504 916.215 406.834 916.215 402.06V361.334C916.215 353.278 915.081 347.132 912.812 342.895C910.602 338.599 906.154 336.45 899.466 336.45C895.107 336.45 891.136 337.763 887.554 340.389C883.971 342.955 881.344 346.505 879.672 351.04C878.478 354.68 877.88 361.483 877.88 371.448V402.06C877.88 407.013 876.716 410.743 874.387 413.249C872.118 415.695 869.163 416.919 865.52 416.919C861.997 416.919 859.101 415.636 856.832 413.07C854.563 410.504 853.429 406.834 853.429 402.06V331.438C853.429 326.783 854.444 323.322 856.474 321.055C858.504 318.728 861.281 317.564 864.804 317.564C866.953 317.564 868.894 318.071 870.625 319.086C872.357 320.1 873.73 321.622 874.746 323.651C875.82 325.679 876.358 328.156 876.358 331.08Z" fill="#0F393B"/>
<path d="M966.373 319.712H969.06V305.033C969.06 301.094 969.149 298.021 969.328 295.813C969.567 293.546 970.164 291.606 971.12 289.995C972.075 288.324 973.448 286.982 975.24 285.967C977.031 284.893 979.031 284.356 981.241 284.356C984.346 284.356 987.152 285.52 989.66 287.847C991.332 289.399 992.377 291.308 992.795 293.576C993.273 295.784 993.511 298.946 993.511 303.064V319.712H1002.47C1005.93 319.712 1008.56 320.548 1010.35 322.218C1012.2 323.83 1013.13 325.918 1013.13 328.484C1013.13 331.766 1011.81 334.063 1009.19 335.376C1006.62 336.689 1002.92 337.345 998.079 337.345H993.511V382.279C993.511 386.098 993.631 389.052 993.87 391.14C994.168 393.169 994.885 394.84 996.019 396.153C997.214 397.406 999.124 398.032 1001.75 398.032C1003.18 398.032 1005.13 397.794 1007.57 397.316C1010.02 396.779 1011.93 396.511 1013.31 396.511C1015.28 396.511 1017.04 397.316 1018.59 398.927C1020.2 400.479 1021.01 402.418 1021.01 404.746C1021.01 408.684 1018.86 411.697 1014.56 413.786C1010.26 415.874 1004.08 416.919 996.019 416.919C988.376 416.919 982.584 415.636 978.643 413.07C974.702 410.504 972.105 406.953 970.851 402.418C969.657 397.883 969.06 391.826 969.06 384.248V337.345H965.835C962.312 337.345 959.625 336.51 957.774 334.839C955.923 333.168 954.998 331.05 954.998 328.484C954.998 325.918 955.953 323.83 957.864 322.218C959.834 320.548 962.671 319.712 966.373 319.712Z" fill="#0F393B"/>
<path d="M1098.3 373.238H1050.48C1050.54 378.788 1051.64 383.681 1053.79 387.918C1056 392.155 1058.9 395.347 1062.48 397.495C1066.12 399.644 1070.12 400.718 1074.48 400.718C1077.41 400.718 1080.06 400.389 1082.45 399.733C1084.9 399.017 1087.26 397.943 1089.53 396.511C1091.8 395.019 1093.89 393.438 1095.8 391.767C1097.71 390.096 1100.19 387.828 1103.23 384.964C1104.48 383.89 1106.28 383.353 1108.61 383.353C1111.11 383.353 1113.14 384.039 1114.7 385.412C1116.25 386.784 1117.02 388.723 1117.02 391.23C1117.02 393.438 1116.16 396.033 1114.43 399.017C1112.7 401.941 1110.07 404.775 1106.55 407.52C1103.08 410.206 1098.69 412.443 1093.38 414.233C1088.12 416.024 1082.06 416.919 1075.2 416.919C1059.49 416.919 1047.28 412.443 1038.56 403.492C1029.85 394.542 1025.49 382.398 1025.49 367.062C1025.49 359.842 1026.56 353.159 1028.71 347.012C1030.86 340.806 1034 335.496 1038.12 331.08C1042.24 326.664 1047.31 323.293 1053.34 320.965C1059.37 318.578 1066.06 317.385 1073.41 317.385C1082.96 317.385 1091.14 319.414 1097.95 323.472C1104.81 327.47 1109.95 332.661 1113.35 339.046C1116.76 345.431 1118.46 351.935 1118.46 358.559C1118.46 364.705 1116.7 368.703 1113.17 370.553C1109.65 372.343 1104.69 373.238 1098.3 373.238ZM1050.48 359.365H1094.81C1094.21 351.01 1091.95 344.775 1088 340.657C1084.12 336.48 1078.99 334.392 1072.6 334.392C1066.51 334.392 1061.49 336.51 1057.55 340.747C1053.67 344.924 1051.31 351.13 1050.48 359.365Z" fill="#0F393B"/>
<path d="M1207.4 373.238H1159.57C1159.63 378.788 1160.73 383.681 1162.88 387.918C1165.09 392.155 1167.99 395.347 1171.57 397.495C1175.21 399.644 1179.21 400.718 1183.57 400.718C1186.5 400.718 1189.16 400.389 1191.54 399.733C1193.99 399.017 1196.35 397.943 1198.62 396.511C1200.89 395.019 1202.98 393.438 1204.89 391.767C1206.8 390.096 1209.28 387.828 1212.32 384.964C1213.58 383.89 1215.37 383.353 1217.7 383.353C1220.21 383.353 1222.24 384.039 1223.79 385.412C1225.34 386.784 1226.12 388.723 1226.12 391.23C1226.12 393.438 1225.25 396.033 1223.52 399.017C1221.79 401.941 1219.16 404.775 1215.64 407.52C1212.17 410.206 1207.79 412.443 1202.47 414.233C1197.22 416.024 1191.16 416.919 1184.29 416.919C1168.59 416.919 1156.37 412.443 1147.66 403.492C1138.94 394.542 1134.58 382.398 1134.58 367.062C1134.58 359.842 1135.65 353.159 1137.8 347.012C1139.95 340.806 1143.09 335.496 1147.21 331.08C1151.33 326.664 1156.4 323.293 1162.43 320.965C1168.47 318.578 1175.15 317.385 1182.5 317.385C1192.05 317.385 1200.23 319.414 1207.04 323.472C1213.91 327.47 1219.04 332.661 1222.44 339.046C1225.85 345.431 1227.55 351.935 1227.55 358.559C1227.55 364.705 1225.79 368.703 1222.27 370.553C1218.74 372.343 1213.79 373.238 1207.4 373.238ZM1159.57 359.365H1203.9C1203.31 351.01 1201.04 344.775 1197.1 340.657C1193.22 336.48 1188.08 334.392 1181.69 334.392C1175.6 334.392 1170.59 336.51 1166.64 340.747C1162.76 344.924 1160.4 351.13 1159.57 359.365Z" fill="#0F393B"/>
<path d="M1272.51 381.652V402.06C1272.51 407.013 1271.35 410.743 1269.02 413.249C1266.69 415.695 1263.74 416.919 1260.15 416.919C1256.63 416.919 1253.73 415.666 1251.46 413.159C1249.2 410.653 1248.06 406.953 1248.06 402.06V334.034C1248.06 323.054 1252.03 317.564 1259.97 317.564C1264.03 317.564 1266.96 318.847 1268.75 321.413C1270.54 323.979 1271.53 327.768 1271.71 332.781C1274.63 327.768 1277.62 323.979 1280.66 321.413C1283.77 318.847 1287.89 317.564 1293.02 317.564C1298.16 317.564 1303.14 318.847 1307.98 321.413C1312.82 323.979 1315.24 327.38 1315.24 331.617C1315.24 334.601 1314.19 337.077 1312.1 339.046C1310.07 340.956 1307.86 341.91 1305.47 341.91C1304.58 341.91 1302.4 341.373 1298.94 340.299C1295.53 339.165 1292.52 338.599 1289.89 338.599C1286.31 338.599 1283.38 339.553 1281.11 341.463C1278.84 343.313 1277.08 346.087 1275.83 349.787C1274.57 353.487 1273.71 357.903 1273.23 363.034C1272.75 368.107 1272.51 374.313 1272.51 381.652Z" fill="#0F393B"/>
<path d="M194.706 354.454C194.706 354.454 192.373 350.681 185.855 352.924C185.855 352.924 179.907 356.092 180.993 360.434C182.08 364.777 190.575 362.481 191.394 361.716C191.394 361.716 196.665 360.061 194.724 354.472L194.706 354.454Z" fill="#0F393B"/>
<path d="M197.057 359.438C196.772 359.331 197.983 359.135 196.754 354.223C194.297 351.464 191.839 350.539 189.702 350.842C187.565 351.144 186.318 350.841 181.1 353.6C177.717 354.828 175.882 351.767 174.956 351.447C174.03 351.126 164.52 339.184 162.062 329.663C159.605 320.141 161.136 298.375 174.956 282.731C188.776 267.087 209.025 260.341 222.845 258.793C236.665 257.245 256.308 256.034 282.398 271.678C297.447 283.638 312.478 295.296 320.777 316.475C329.058 337.636 328.755 345.929 327.829 360.648C326.903 375.366 322.611 395.317 302.042 418.009C281.472 440.719 255.079 442.854 250.769 443.477C246.46 444.1 220.387 447.464 199.497 436.43C178.625 425.377 163.576 407.598 162.347 405.747C162.347 405.747 194.582 434.276 228.953 431.215C263.342 428.154 275.613 418.952 294.348 395.317C313.083 371.682 305.71 338.259 305.71 338.259C305.71 338.259 298.961 303.892 262.114 286.717C225.267 269.543 199.8 291.327 199.8 291.327C199.8 291.327 191.519 297.769 188.438 307.273C185.357 316.777 191.821 319.856 191.821 319.856C191.821 319.856 193.05 323.238 212.088 318.628C231.126 314.019 230.805 322.615 230.805 322.615C230.805 322.615 232.034 324.448 221.901 325.676C211.767 326.904 209.007 332.724 209.31 334.575C209.613 336.426 209.915 339.184 212.996 339.789C216.077 340.394 220.049 340.092 225.267 338.561C230.485 337.031 234.777 338.561 234.777 338.561C234.777 338.561 240.921 339.789 246.139 349.916C251.357 360.043 256.237 371.095 256.575 372.003C257.501 374.459 254.117 383.66 246.958 376.915L246.388 376.345C246.388 376.345 246.424 376.577 246.442 376.594C247.671 379.656 243.058 391.509 235.08 381.204C236.611 386.721 230.164 394.392 224.02 386.116C224.02 386.116 223.272 394.748 218.499 393.484C208.063 390.726 211.447 384.888 211.447 384.888C211.447 384.888 212.052 380.901 207.155 378.445L206.852 378.143C206.852 378.143 208.384 374.156 203.789 369.867C202.257 369.564 201.634 369.262 201.634 369.262C201.634 369.262 205.321 362.517 197.022 359.438H197.057Z" fill="url(#paint0_linear_1_7)"/>
<path d="M200.12 363.424C200.12 363.424 196.737 359.74 191.216 362.819C185.695 365.88 185.695 368.657 186.301 370.49C186.906 372.323 189.987 374.477 195.205 372.323C200.423 370.17 201.955 365.88 200.12 363.424Z" fill="#0F393B"/>
<path d="M204.733 372.928C204.733 372.928 201.046 370.17 196.754 372.323C192.462 374.477 190.913 377.538 191.536 379.994C192.16 382.45 198.197 382.592 200.744 381.222C204.733 379.068 207.191 375.705 204.733 372.946V372.928Z" fill="#0F393B"/>
<path d="M209.648 381.827C209.648 381.827 206.264 379.068 201.67 381.524C197.912 383.535 196.452 386.436 197.057 388.893C197.663 391.349 204.11 391.349 206.265 389.498C208.419 387.647 211.18 385.511 209.648 381.827Z" fill="#0F393B"/>
<path d="M268.578 338.579C268.578 338.579 261.829 326.619 240.333 325.089C226.211 324.483 213.62 330.926 213.62 330.926C213.62 330.926 206.87 337.369 216.077 339.202C216.077 339.202 219.461 339.807 226.513 337.048C229.897 336.746 231.126 336.746 232.96 336.746C234.795 336.746 238.802 338.276 241.865 341.355C244.928 344.434 248.614 350.859 249.54 353.013C250.467 355.166 255.382 365.596 255.382 365.596C255.382 365.596 256.308 368.052 260.297 369.885C263.36 371.113 264.589 370.81 264.589 370.81C264.589 370.81 279.941 370.508 281.472 383.073C281.472 387.985 276.254 393.502 276.254 393.502C276.254 393.502 268.578 403.006 256.308 408.843C244.038 414.681 243.111 415.589 230.823 417.742C218.535 419.896 196.434 414.361 195.828 414.058C195.223 413.756 177.717 407.01 167.886 400.87C165.286 399.251 161.136 397.809 153.158 390.441C158.073 400.265 160.834 403.629 161.76 404.857C162.686 406.085 171.43 413.987 181.029 418.774C190.628 423.562 199.212 428.172 208.74 430.005C218.268 431.838 225.819 432.425 238.819 430.61C251.82 428.794 260.315 426 266.441 421.711C278.925 412.972 279.032 413.435 287.242 404.536C298.907 391.9 307.58 375.794 307.277 362.41C303.288 348.706 294.081 346.25 294.081 346.25C294.081 346.25 294.081 344.417 273.209 339.807C269.825 338.882 268.596 338.579 268.596 338.579H268.578Z" fill="#0F393B"/>
<path d="M420.703 427.762C427.087 427.762 432.261 422.591 432.261 416.212C432.261 409.832 427.087 404.661 420.703 404.661C414.32 404.661 409.145 409.832 409.145 416.212C409.145 422.591 414.32 427.762 420.703 427.762Z" fill="#EF8451"/>
<path d="M403.678 284.35C410.061 284.35 415.236 279.179 415.236 272.8C415.236 266.42 410.061 261.249 403.678 261.249C397.295 261.249 392.12 266.42 392.12 272.8C392.12 279.179 397.295 284.35 403.678 284.35Z" fill="#EF8451"/>
<path d="M303.359 270.966C303.359 270.966 300.92 294.05 348.363 304.995C387.276 309.854 404.301 308.644 404.301 308.644C404.301 308.644 347.134 356.038 322.825 428.972C390.927 393.733 448.094 381.578 448.094 421.675C456.606 380.35 429.857 369.422 400.668 381.56C371.479 393.716 365.406 396.136 365.406 396.136C365.406 396.136 386.581 360.826 427.435 315.923C463.926 275.807 411.621 252.724 411.621 252.724C411.621 252.724 435.948 283.104 410.41 289.191C386.724 294.833 317.981 290.401 303.395 270.966H303.359Z" fill="#0F393B"/>
<defs>
<linearGradient id="paint0_linear_1_7" x1="7.7866" y1="163.029" x2="567.349" y2="1035.08" gradientUnits="userSpaceOnUse">
<stop offset="0.35" stop-color="#EF8451"/>
<stop offset="1" stop-color="#EF8451" stop-opacity="0.49"/>
</linearGradient>
</defs>
</svg>
